<?xml version="1.0" standalone="no"?>
<!DOCTYPE svg PUBLIC "-//W3C//DTD SVG 20010904//EN"
 "http://www.w3.org/TR/2001/REC-SVG-20010904/DTD/svg10.dtd">
<svg version="1.0" xmlns="http://www.w3.org/2000/svg"
 width="300.000000pt" height="300.000000pt" viewBox="0 0 300.000000 300.000000"
 preserveAspectRatio="xMidYMid meet">
<metadata>
Created by potrace 1.14, written by Peter Selinger 2001-2017
</metadata>
<g transform="translate(0.000000,300.000000) scale(0.100000,-0.100000)"
fill="#000000" stroke="none">
<path d="M1275 2920 c-3 -5 -12 -7 -19 -4 -27 11 -22 -12 11 -43 18 -18 34
-32 36 -32 10 2 36 -15 32 -21 -10 -16 -164 -31 -195 -19 -3 1 -9 0 -15 -1 -5
-1 -40 -2 -77 -3 -38 0 -68 -3 -68 -6 0 -3 -35 -7 -77 -8 -43 -1 -112 -7 -153
-13 -41 -6 -92 -11 -112 -13 -21 -1 -38 -5 -38 -9 0 -5 -18 -8 -39 -8 -50 0
-60 -22 -23 -50 41 -30 47 -34 67 -46 10 -5 19 -18 21 -28 1 -10 0 -16 -3 -13
-2 3 -13 -2 -22 -11 -26 -25 -58 -45 -67 -43 -4 2 -11 -4 -16 -13 -5 -9 -16
-16 -23 -16 -8 0 -15 -4 -15 -8 0 -5 -38 -28 -85 -52 -81 -41 -103 -60 -70
-60 8 0 16 1 18 2 1 2 17 -7 35 -20 17 -13 32 -21 32 -17 0 3 6 0 14 -7 12
-11 11 -14 -8 -21 -11 -5 -23 -8 -26 -8 -3 0 -18 -11 -35 -23 -16 -12 -45 -29
-63 -37 -35 -15 -40 -44 -7 -44 11 0 23 -4 26 -8 3 -5 12 -10 20 -11 8 -2 22
-6 32 -9 9 -4 24 -9 34 -12 14 -5 12 -10 -10 -33 -15 -16 -27 -34 -27 -40 0
-7 -6 -15 -14 -18 -7 -3 -22 -21 -32 -40 -10 -19 -22 -34 -25 -34 -4 0 -10
-17 -14 -37 -4 -21 -8 -40 -8 -42 -5 -13 74 -9 87 4 19 19 33 19 33 0 0 -8 -4
-15 -9 -15 -26 0 -66 -70 -73 -130 -3 -18 -9 -37 -16 -40 -14 -9 -12 -21 7
-42 9 -9 11 -19 6 -22 -10 -6 -5 -54 8 -71 4 -5 6 -27 5 -47 -1 -21 2 -38 6
-38 7 0 17 -57 22 -126 1 -23 8 -48 14 -56 7 -8 8 -19 3 -27 -5 -8 -3 -29 5
-50 7 -20 11 -48 9 -63 -1 -15 2 -30 7 -33 5 -4 9 -26 9 -50 0 -24 4 -46 8
-49 5 -3 8 -21 7 -41 -2 -19 1 -38 6 -41 5 -3 9 -14 9 -25 0 -19 -22 -25 -73
-20 -9 1 -17 -3 -17 -9 0 -6 -6 -10 -12 -9 -53 9 -68 -66 -20 -99 15 -11 36
-18 47 -16 38 6 45 -13 45 -122 0 -56 4 -105 9 -109 6 -3 8 -14 6 -25 -2 -11
0 -22 6 -25 5 -4 9 -19 9 -36 0 -16 5 -29 10 -29 6 0 9 -3 8 -7 -4 -12 53
-123 63 -123 5 0 9 -6 9 -13 0 -17 84 -99 93 -91 4 4 7 3 7 -3 0 -8 48 -37 57
-34 2 0 22 -8 46 -18 50 -22 68 -24 185 -24 96 1 142 5 157 14 6 4 25 10 43
14 17 3 32 10 32 14 0 4 16 13 35 20 19 7 35 17 35 22 0 5 15 17 34 26 20 9
32 21 29 29 -2 7 5 19 16 26 12 7 21 17 21 21 0 5 11 23 25 41 14 18 25 40 25
50 0 19 29 67 47 79 7 4 13 15 13 22 0 8 5 15 10 15 6 0 8 18 6 45 -3 25 -1
47 5 51 6 3 8 12 5 20 -3 8 -2 14 2 14 4 0 7 19 7 42 0 29 -6 48 -18 58 -31
26 8 72 43 50 6 -4 29 -4 50 0 31 6 43 3 55 -10 15 -16 14 -21 -2 -51 -19 -34
-22 -111 -5 -117 5 -1 7 -16 4 -32 -2 -16 -1 -38 4 -47 4 -10 8 -20 9 -23 8
-30 18 -50 25 -50 11 0 41 -60 35 -70 -3 -4 2 -13 10 -20 8 -7 13 -16 10 -20
-3 -4 2 -10 10 -14 8 -3 15 -12 15 -20 0 -8 4 -16 8 -18 4 -1 21 -20 36 -40
16 -21 32 -35 37 -33 4 3 13 -3 18 -14 11 -20 117 -76 139 -72 6 1 12 -2 12
-7 0 -5 12 -10 28 -11 15 -1 69 -4 120 -7 50 -3 92 -2 92 3 0 4 16 8 35 7 19
-1 35 2 35 7 0 5 11 9 24 9 36 0 132 54 177 99 21 22 39 43 39 46 0 3 14 24
30 47 17 22 30 49 30 58 0 10 6 22 13 28 7 6 14 26 15 44 2 18 6 35 10 38 8 5
12 50 17 173 3 81 16 112 46 104 10 -3 31 3 47 14 25 15 30 24 28 51 -2 27 -9
36 -37 50 -19 9 -49 16 -67 14 -27 -3 -35 1 -42 18 -4 12 -3 24 3 28 10 6 16
27 20 76 1 12 5 22 8 22 6 0 18 38 24 75 5 31 19 72 27 82 6 7 8 19 5 27 -3 8
0 20 8 26 8 6 11 18 8 26 -3 9 0 26 7 40 8 13 11 27 7 30 -3 3 -1 18 5 33 5
14 12 44 14 66 2 22 7 65 10 95 14 119 15 343 3 351 -7 4 -12 26 -12 48 0 23
-4 41 -8 41 -4 0 -6 11 -3 25 2 14 0 25 -6 25 -5 0 -9 3 -9 8 1 4 1 12 0 18
-2 15 -56 74 -68 74 -6 0 -16 7 -23 15 -7 8 -21 15 -31 15 -11 0 -19 4 -19 8
0 4 -10 8 -21 9 -33 3 -48 22 -26 34 9 6 17 17 17 24 0 8 5 15 11 15 6 0 8 8
4 19 -3 11 -1 22 5 26 14 9 13 175 -1 175 -6 0 -9 6 -6 14 3 8 -1 17 -9 20 -9
3 -13 10 -10 15 3 5 -1 14 -9 21 -8 7 -15 19 -15 26 0 8 -3 14 -8 14 -4 0 -31
21 -60 46 -28 25 -52 42 -52 37 0 -4 -6 -1 -13 7 -7 8 -21 21 -32 27 -26 16
-99 57 -105 58 -15 4 -48 18 -70 29 -14 7 -38 17 -55 21 -16 5 -34 10 -40 12
-5 2 -25 6 -42 9 -18 4 -33 9 -33 13 0 3 -10 7 -22 8 -86 7 -108 10 -114 16
-11 11 -562 8 -569 -3z m1056 -1212 c6 -24 15 -48 20 -54 5 -7 9 -16 8 -20 -2
-8 1 -19 18 -61 4 -10 8 -22 8 -28 1 -5 7 -23 14 -40 15 -36 22 -59 28 -102 3
-18 10 -33 15 -33 6 0 8 -6 5 -14 -3 -8 0 -20 8 -26 8 -6 11 -18 8 -26 -3 -8
-2 -22 2 -31 5 -10 7 -25 6 -35 -1 -9 3 -19 9 -23 5 -3 10 -19 10 -34 0 -15 3
-31 7 -35 4 -4 9 -19 10 -34 7 -69 12 -94 23 -107 21 -25 -24 -18 -83 12 -29
15 -56 28 -62 28 -5 0 -17 5 -25 10 -8 5 -28 10 -45 12 -58 7 -71 9 -84 17
-17 11 -242 10 -250 -1 -3 -4 -22 -9 -41 -10 -67 -3 -176 -38 -210 -68 -49
-42 -161 -63 -194 -36 -10 8 -27 8 -67 -1 -30 -6 -61 -12 -69 -12 -31 0 -90
15 -90 23 0 5 -8 11 -17 15 -10 3 -25 10 -33 16 -28 19 -115 54 -145 57 -60 7
-71 9 -84 17 -17 11 -231 11 -239 0 -4 -5 -25 -9 -47 -8 -22 0 -46 -4 -53 -9
-7 -6 -15 -7 -19 -4 -3 3 -18 0 -34 -9 -16 -8 -29 -13 -29 -10 0 2 -20 -6 -46
-20 -25 -13 -47 -24 -48 -24 -11 0 -12 41 -2 49 7 6 11 26 10 46 -2 21 1 33 6
30 6 -4 10 9 10 29 0 20 3 36 8 36 4 0 8 10 9 23 1 12 4 33 7 47 4 14 9 41 12
60 3 19 8 42 11 50 3 8 6 24 7 35 1 11 5 26 10 34 5 7 10 21 11 30 5 47 28 79
68 97 23 10 44 21 47 25 3 3 22 12 42 20 21 7 38 16 38 20 0 4 12 10 27 14 15
3 47 20 72 36 38 27 46 29 59 16 12 -13 11 -19 -8 -44 -12 -16 -23 -36 -24
-44 -2 -8 -9 -27 -16 -44 -7 -16 -12 -36 -11 -42 1 -7 -2 -13 -8 -13 -5 0 -12
-13 -16 -30 -4 -16 -11 -30 -17 -30 -6 0 -8 -9 -5 -19 3 -11 -1 -22 -8 -25
-17 -6 -7 -46 11 -46 8 0 14 4 14 8 0 5 13 7 29 6 17 -1 32 4 35 11 2 8 15 11
30 8 15 -3 26 -1 26 5 0 6 11 9 25 6 15 -2 25 0 25 7 0 6 7 9 15 5 8 -3 21 1
29 9 7 8 16 12 19 9 2 -3 15 0 28 5 48 19 64 24 72 23 4 -1 7 3 7 9 0 6 6 9
13 6 6 -2 25 5 40 16 49 34 39 12 -20 -46 -46 -46 -55 -59 -45 -69 9 -9 15
-10 20 -2 4 6 21 14 37 17 48 9 86 21 118 38 10 5 22 7 27 4 5 -3 11 -1 14 4
3 5 22 12 41 15 19 4 35 11 35 16 0 6 8 10 18 10 9 0 30 7 46 15 15 8 34 15
41 15 8 0 21 7 29 16 9 8 20 13 25 9 6 -3 14 3 20 12 6 10 11 14 11 9 0 -5 9
-1 20 9 29 26 38 9 10 -20 -13 -14 -19 -25 -14 -25 5 0 0 -7 -11 -16 -11 -8
-20 -18 -21 -22 -2 -18 -19 -48 -33 -59 -19 -15 -20 -15 52 -17 31 -2 57 1 57
6 0 4 13 8 29 8 17 0 33 5 36 10 4 6 10 8 15 5 5 -3 17 -2 27 3 10 5 53 26 96
47 42 20 77 40 77 45 0 4 10 11 23 14 12 3 35 16 50 28 85 68 141 120 143 134
4 25 25 44 50 44 19 0 25 -8 35 -42z m-1326 -745 c11 -6 30 -9 43 -7 12 2 22
-1 22 -7 0 -6 7 -9 15 -5 8 3 21 -1 29 -9 7 -8 16 -11 20 -8 10 10 88 -37 119
-71 35 -40 45 -78 35 -140 -5 -28 -9 -66 -10 -83 -1 -18 -5 -33 -10 -33 -4 0
-7 -12 -6 -27 2 -14 -2 -28 -9 -30 -6 -2 -9 -12 -6 -22 2 -9 -3 -23 -11 -30
-9 -8 -16 -20 -16 -29 0 -8 -10 -25 -22 -36 -13 -12 -28 -31 -34 -42 -6 -10
-14 -17 -17 -14 -3 3 -16 -7 -29 -21 -19 -22 -40 -34 -78 -44 -3 -1 -12 -4
-20 -8 -49 -19 -149 -27 -168 -13 -7 5 -29 10 -50 11 -20 1 -38 4 -39 5 -2 1
-6 3 -10 5 -31 8 -63 26 -63 35 0 5 -6 10 -14 10 -38 0 -145 161 -137 208 1 6
-2 12 -7 12 -5 0 -8 12 -8 28 1 15 -3 36 -8 47 -5 11 -10 54 -10 95 -1 77 -2
75 52 134 17 18 61 41 75 38 4 -1 7 2 7 7 0 5 12 12 28 16 15 4 36 9 47 12 11
3 34 6 50 7 17 0 35 6 41 12 15 13 172 11 199 -3z m1195 2 c19 -5 43 -8 53 -6
9 1 17 -2 17 -6 0 -5 10 -9 23 -10 27 -2 137 -54 137 -65 0 -4 7 -8 15 -8 8 0
15 -7 15 -15 0 -7 7 -18 16 -23 13 -7 15 -24 10 -103 -8 -150 -9 -159 -18
-159 -4 0 -8 -9 -8 -20 0 -11 -5 -20 -10 -20 -6 0 -9 -3 -8 -8 1 -4 -5 -20
-12 -37 -7 -16 -13 -33 -12 -38 1 -4 -2 -7 -8 -7 -5 0 -10 -5 -10 -11 0 -15
-62 -79 -77 -79 -7 0 -13 -4 -13 -8 0 -11 -51 -36 -67 -33 -6 1 -14 -3 -18 -9
-3 -5 -21 -10 -40 -10 -19 0 -36 -3 -39 -8 -5 -9 -83 -8 -93 1 -3 4 -24 7 -45
7 -21 0 -38 5 -38 11 0 6 -9 8 -20 4 -11 -4 -20 -2 -20 4 0 6 -6 11 -14 11 -8
0 -23 11 -34 25 -11 13 -22 22 -24 19 -7 -7 -70 74 -90 116 -31 67 -39 93 -42
141 -2 19 -6 41 -11 49 -11 17 -13 140 -3 140 5 0 8 5 8 11 0 7 15 26 34 43
47 43 66 58 66 52 0 -3 20 3 45 14 25 11 46 19 48 19 1 0 10 3 20 6 9 4 26 5
37 2 10 -3 24 0 29 7 11 13 148 14 201 1z"/>
</g>
</svg>
